<svg xmlns="http://www.w3.org/2000/svg" viewBox="0 0 640 480" width="640" height="480">
	<style>
		tspan { white-space:pre }

	</style>
	<path id="v" class="shp0" d="M545.39 229.6L558.12 262.19L570.85 229.6L572.74 229.6L558.97 265L557.24 265L543.5 229.6L545.39 229.6Z"/>
	<path id="e2" fill-rule="evenodd" class="shp0" d="M527.11 265.65C524.25 265.65 521.62 264.89 519.22 263.36C516.85 261.82 514.98 259.7 513.63 257.02C512.28 254.33 511.6 251.36 511.6 248.09L511.6 246.61C511.6 243.34 512.25 240.34 513.56 237.62C514.87 234.89 516.67 232.76 518.96 231.24C521.25 229.71 523.75 228.95 526.45 228.95C530.4 228.95 533.63 230.35 536.14 233.17C538.64 235.98 539.9 239.68 539.9 244.26L539.9 246.12L513.37 246.12L513.37 248.05C513.37 250.93 513.97 253.6 515.17 256.07C516.39 258.51 518.06 260.43 520.17 261.83C522.31 263.22 524.62 263.92 527.11 263.92C529.48 263.92 531.5 263.53 533.16 262.74C534.84 261.94 536.32 260.7 537.61 259.05L538.85 259.93C536.21 263.75 532.3 265.65 527.11 265.65ZM526.45 230.71C523.01 230.71 520.08 232 517.69 234.58C515.29 237.13 513.88 240.39 513.46 244.36L538.13 244.36L538.13 243.93C538.13 241.53 537.62 239.31 536.59 237.26C535.59 235.19 534.2 233.58 532.41 232.45C530.64 231.29 528.66 230.71 526.45 230.71Z"/>
	<path id="d2" fill-rule="evenodd" class="shp0" d="M476.07 247.4L476.07 246.94C476.07 241.29 477.26 236.89 479.64 233.72C482.01 230.54 485.28 228.95 489.42 228.95C492.08 228.95 494.42 229.55 496.45 230.75C498.5 231.95 500.16 233.74 501.43 236.11L501.43 214.75L503.19 214.75L503.19 265L501.43 265L501.43 259.34C500.23 261.35 498.58 262.91 496.49 264.02C494.39 265.11 492.01 265.65 489.35 265.65C485.25 265.65 482.01 264.03 479.64 260.78C477.26 257.53 476.07 253.07 476.07 247.4ZM477.9 247.63C477.9 252.64 478.9 256.61 480.88 259.54C482.87 262.44 485.68 263.89 489.32 263.89C492.24 263.89 494.74 263.24 496.81 261.96C498.88 260.65 500.42 258.74 501.43 256.23L501.43 239.65C499.4 233.69 495.38 230.71 489.39 230.71C485.77 230.71 482.94 232.14 480.91 235C478.91 237.86 477.9 242.07 477.9 247.63Z"/>
	<path id="." class="shp0" d="M462.53 263.4C462.53 262.9 462.7 262.47 463.05 262.12C463.4 261.75 463.83 261.56 464.33 261.56C464.83 261.56 465.25 261.75 465.6 262.12C465.97 262.47 466.16 262.9 466.16 263.4C466.16 263.9 465.97 264.32 465.6 264.67C465.25 265.02 464.83 265.2 464.33 265.2C463.83 265.2 463.4 265.02 463.05 264.67C462.7 264.32 462.53 263.9 462.53 263.4Z"/>
	<path id="d1" fill-rule="evenodd" class="shp0" d="M425.04 247.4L425.04 246.94C425.04 241.29 426.23 236.89 428.6 233.72C430.98 230.54 434.24 228.95 438.38 228.95C441.05 228.95 443.39 229.55 445.42 230.75C447.47 231.95 449.13 233.74 450.39 236.11L450.39 214.75L452.16 214.75L452.16 265L450.39 265L450.39 259.34C449.19 261.35 447.54 262.91 445.45 264.02C443.36 265.11 440.98 265.65 438.32 265.65C434.22 265.65 430.98 264.03 428.6 260.78C426.23 257.53 425.04 253.07 425.04 247.4ZM426.87 247.63C426.87 252.64 427.86 256.61 429.85 259.54C431.83 262.44 434.64 263.89 438.29 263.89C441.21 263.89 443.71 263.24 445.78 261.96C447.85 260.65 449.39 258.74 450.39 256.23L450.39 239.65C448.36 233.69 444.35 230.71 438.35 230.71C434.73 230.71 431.91 232.14 429.88 235C427.87 237.86 426.87 242.07 426.87 247.63Z"/>
	<path id="a3" fill-rule="evenodd" class="shp0" d="M416.2 265L414.18 265C413.74 263.5 413.52 261.34 413.52 258.52C412.13 260.79 410.22 262.55 407.8 263.79C405.38 265.03 402.64 265.65 399.58 265.65C396.31 265.65 393.67 264.77 391.67 263C389.68 261.22 388.69 258.89 388.69 256.04C388.69 252.79 390.15 250.19 393.07 248.25C396.02 246.29 399.92 245.28 404.79 245.24L413.52 245.24L413.52 240.07C413.52 237.11 412.58 234.8 410.71 233.17C408.85 231.53 406.19 230.71 402.73 230.71C399.5 230.71 396.8 231.54 394.64 233.2C392.49 234.86 391.41 236.91 391.41 239.35L389.64 239.29C389.64 236.41 390.9 233.96 393.43 231.96C395.96 229.95 399.06 228.95 402.73 228.95C406.54 228.95 409.57 229.91 411.82 231.83C414.07 233.72 415.22 236.41 415.29 239.88L415.29 256.79C415.29 260.67 415.59 263.31 416.2 264.71L416.2 265ZM399.58 263.92C402.9 263.92 405.75 263.18 408.12 261.7C410.52 260.21 412.32 258.13 413.52 255.45L413.52 247.04L405.34 247.04C400.28 247.04 396.41 248.04 393.73 250.05C391.55 251.69 390.46 253.72 390.46 256.17C390.46 258.33 391.32 260.16 393.04 261.66C394.76 263.17 396.95 263.92 399.58 263.92Z"/>
	<path id="e1" fill-rule="evenodd" class="shp0" d="M370.27 265.65C367.41 265.65 364.79 264.89 362.39 263.36C360.01 261.82 358.15 259.7 356.79 257.02C355.44 254.33 354.77 251.36 354.77 248.09L354.77 246.61C354.77 243.34 355.42 240.34 356.73 237.62C358.04 234.89 359.84 232.76 362.13 231.24C364.42 229.71 366.91 228.95 369.62 228.95C373.57 228.95 376.79 230.35 379.3 233.17C381.81 235.98 383.06 239.68 383.06 244.26L383.06 246.12L356.53 246.12L356.53 248.05C356.53 250.93 357.13 253.6 358.33 256.07C359.55 258.51 361.22 260.43 363.34 261.83C365.47 263.22 367.79 263.92 370.27 263.92C372.65 263.92 374.67 263.53 376.32 262.74C378 261.94 379.49 260.7 380.77 259.05L382.02 259.93C379.38 263.75 375.46 265.65 370.27 265.65ZM368.99 231C365.54 231 362.62 232.29 360.22 234.86C357.82 237.41 356.41 240.67 356 244.64L380.67 244.64L380.67 244.22C380.67 241.82 380.15 239.59 379.13 237.54C378.13 235.47 376.73 233.87 374.94 232.73C373.18 231.58 371.19 231 368.99 231Z"/>
	<path id="t" class="shp0" d="M338.51 220.05L340.31 220.05L340.31 229.6L348.35 229.6L348.35 231.4L340.31 231.4L340.31 256.53C340.31 259.03 340.71 260.89 341.52 262.09C342.34 263.29 343.72 263.89 345.64 263.89C346.6 263.89 347.76 263.79 349.14 263.59L349.43 265.26C348.71 265.52 347.48 265.65 345.74 265.65C343.16 265.65 341.32 264.95 340.21 263.53C339.09 262.09 338.53 259.83 338.51 256.76L338.51 231.4L331.96 231.4L331.96 229.6L338.51 229.6L338.51 220.05Z"/>
	<path id="s" class="shp0" d="M324.83 256.33C324.83 252.03 321.17 249.11 313.84 247.56C309.43 246.63 306.37 245.43 304.65 243.96C302.92 242.48 302.06 240.45 302.06 237.88C302.06 235.28 303.15 233.15 305.33 231.47C307.54 229.79 310.39 228.95 313.9 228.95C317.72 228.95 320.79 229.86 323.1 231.7C325.41 233.51 326.56 235.96 326.56 239.06L324.77 239.06C324.77 236.68 323.76 234.7 321.76 233.1C319.75 231.51 317.13 230.71 313.9 230.71C310.81 230.71 308.35 231.39 306.54 232.74C304.73 234.1 303.83 235.79 303.83 237.81C303.83 239.41 304.17 240.66 304.84 241.58C305.52 242.47 306.62 243.29 308.15 244.03C309.67 244.75 311.9 245.45 314.82 246.12C317.74 246.8 320.05 247.6 321.76 248.51C323.46 249.43 324.69 250.52 325.45 251.78C326.22 253.03 326.6 254.55 326.6 256.36C326.6 259.15 325.45 261.4 323.16 263.1C320.87 264.8 317.87 265.65 314.17 265.65C310.2 265.65 306.99 264.76 304.55 262.97C302.13 261.16 300.92 258.84 300.92 256L302.68 256C302.86 258.49 303.95 260.43 305.95 261.83C307.98 263.2 310.72 263.89 314.17 263.89C317.33 263.89 319.89 263.16 321.85 261.7C323.84 260.21 324.83 258.42 324.83 256.33Z"/>
	<path id="l" class="shp0" d="M291.4 214.75L291.4 265L289.63 265L289.63 214.75L291.4 214.75Z"/>
	<path id="a2" fill-rule="evenodd" class="shp0" d="M278.74 265L276.71 265C276.27 263.5 276.05 261.34 276.05 258.52C274.66 260.79 272.75 262.55 270.33 263.79C267.91 265.03 265.17 265.65 262.12 265.65C258.85 265.65 256.21 264.77 254.2 263C252.22 261.22 251.22 258.89 251.22 256.04C251.22 252.79 252.68 250.19 255.61 248.25C258.55 246.29 262.45 245.28 267.32 245.24L276.05 245.24L276.05 240.07C276.05 237.11 275.12 234.8 273.24 233.17C271.39 231.53 268.73 230.71 265.26 230.71C262.03 230.71 259.34 231.54 257.18 233.2C255.02 234.86 253.94 236.91 253.94 239.35L252.17 239.29C252.17 236.41 253.44 233.96 255.97 231.96C258.5 229.95 261.59 228.95 265.26 228.95C269.07 228.95 272.11 229.91 274.35 231.83C276.6 233.72 277.75 236.41 277.82 239.88L277.82 256.79C277.82 260.67 278.13 263.31 278.74 264.71L278.74 265ZM262.12 263.92C265.43 263.92 268.28 263.18 270.66 261.7C273.05 260.21 274.85 258.13 276.05 255.45L276.05 247.04L267.87 247.04C262.81 247.04 258.94 248.04 256.26 250.05C254.08 251.69 252.99 253.72 252.99 256.17C252.99 258.33 253.85 260.16 255.57 261.66C257.3 263.17 259.48 263.92 262.12 263.92Z"/>
	<path id="h" class="shp0" d="M218.93 214.75L218.93 237.85C220.09 235.1 221.79 232.93 224.04 231.34C226.28 229.74 228.77 228.95 231.5 228.95C235.29 228.95 238.1 230.03 239.94 232.19C241.79 234.32 242.73 237.56 242.75 241.9L242.75 265L240.98 265L240.98 241.84C240.96 238.04 240.19 235.24 238.66 233.43C237.13 231.6 234.71 230.68 231.4 230.68C228.34 230.68 225.69 231.77 223.45 233.95C221.22 236.11 219.72 238.9 218.93 242.33L218.93 265L217.17 265L217.17 214.75L218.93 214.75Z"/>
	<path id="k" class="shp0" d="M208.73 265L192.43 245.86L192.37 245.93L187.23 250.34L187.23 265L185.47 265L185.47 214.75L187.23 214.75L187.23 248.41L191.39 244.49L207.48 229.6L210 229.6L193.74 244.68L211.02 265L208.73 265Z"/>
	<path id="r" class="shp0" d="M178.86 229.31L178.66 230.88L176.37 230.68C173.36 230.68 170.84 231.66 168.81 233.63C166.79 235.57 165.46 238.29 164.82 241.81L164.82 265L163.06 265L163.06 229.6L164.82 229.6L164.82 236.96C165.78 234.5 167.22 232.55 169.14 231.11C171.06 229.67 173.47 228.95 176.37 228.95C177.4 228.95 178.22 229.07 178.86 229.31Z"/>
	<path id="a1" fill-rule="evenodd" class="shp0" d="M152.59 265L150.56 265C150.12 263.5 149.9 261.34 149.9 258.52C148.51 260.79 146.6 262.55 144.18 263.79C141.76 265.03 139.02 265.65 135.97 265.65C132.7 265.65 130.06 264.77 128.05 263C126.07 261.22 125.07 258.89 125.07 256.04C125.07 252.79 126.54 250.19 129.46 248.25C132.4 246.29 136.31 245.28 141.17 245.24L149.9 245.24L149.9 240.07C149.9 237.11 148.97 234.8 147.09 233.17C145.24 231.53 142.58 230.71 139.11 230.71C135.88 230.71 133.19 231.54 131.03 233.2C128.87 234.86 127.79 236.91 127.79 239.35L126.02 239.29C126.02 236.41 127.29 233.96 129.82 231.96C132.35 229.95 135.44 228.95 139.11 228.95C142.93 228.95 145.96 229.91 148.2 231.83C150.45 233.72 151.61 236.41 151.67 239.88L151.67 256.79C151.67 260.67 151.98 263.31 152.59 264.71L152.59 265ZM135.97 263.92C139.28 263.92 142.13 263.18 144.51 261.7C146.91 260.21 148.71 258.13 149.9 255.45L149.9 247.04L141.73 247.04C136.67 247.04 132.79 248.04 130.11 250.05C127.93 251.69 126.84 253.72 126.84 256.17C126.84 258.33 127.7 260.16 129.43 261.66C131.15 263.17 133.33 263.92 135.97 263.92Z"/>
	<path id="m" class="shp0" d="M92.95 241.45L92.95 265L91.18 265L91.18 241.22C91.16 237.66 90.37 235.02 88.83 233.3C87.3 231.55 84.86 230.68 81.5 230.68C77.62 230.68 74.44 232.39 71.98 235.82C70.52 237.87 69.55 240.14 69.07 242.62L69.07 265L67.27 265L67.27 229.6L69.07 229.6L69.07 237.98C70.27 235.1 71.98 232.87 74.2 231.3C76.43 229.73 78.89 228.95 81.6 228.95C84.56 228.95 86.98 229.6 88.86 230.91C90.76 232.22 92 234.36 92.59 237.32C93.64 234.77 95.34 232.74 97.69 231.24C100.05 229.71 102.69 228.95 105.61 228.95C109.43 228.95 112.26 230.03 114.11 232.19C115.99 234.35 116.94 237.58 116.96 241.9L116.96 265L115.19 265L115.19 242.03C115.19 238.15 114.41 235.28 112.84 233.43C111.29 231.55 108.85 230.64 105.51 230.68C101.21 230.75 97.81 232.46 95.3 235.82C93.86 237.76 93.08 239.64 92.95 241.45Z"/>
</svg>
