<svg xmlns="http://www.w3.org/2000/svg" viewBox="0 0 640 480" width="640" height="480">
	<style>
		tspan { white-space:pre }
		.shp0 { fill: #000000 }
		path{
		/*   background-color:black;
		  color:black; */
		  color:none;
		  fill:none;
		  stroke:black;
		  stroke-dasharray: 300;
		  stroke-dashoffset: -900;
		  stroke-width:1;
		  animation: dash 8s linear infinite;
		}
		@keyframes dash {
		  to {
		    stroke-dashoffset: 900;
		  }
		}
		svg{
		  transform:scale(2);
		  fill:none;

		}
	</style>
	<path id="markhalstead.dev " class="shp0" d="M113.18 241.55L113.18 263L111.57 263L111.57 241.35C111.55 238.11 110.83 235.71 109.42 234.14C108.03 232.55 105.81 231.76 102.75 231.76C99.22 231.76 96.33 233.31 94.08 236.43C92.75 238.3 91.87 240.36 91.43 242.63L91.43 263L89.8 263L89.8 230.77L91.43 230.77L91.43 238.4C92.53 235.78 94.08 233.75 96.11 232.32C98.14 230.89 100.38 230.18 102.84 230.18C105.54 230.18 107.75 230.77 109.45 231.96C111.18 233.16 112.31 235.1 112.85 237.8C113.8 235.48 115.35 233.63 117.5 232.26C119.64 230.87 122.04 230.18 124.7 230.18C128.18 230.18 130.76 231.16 132.45 233.13C134.16 235.09 135.02 238.04 135.04 241.97L135.04 263L133.43 263L133.43 242.09C133.43 238.56 132.72 235.95 131.29 234.26C129.88 232.55 127.65 231.72 124.61 231.76C120.7 231.81 117.6 233.37 115.32 236.43C114.01 238.2 113.3 239.91 113.18 241.55ZM167.48 263L165.63 263C165.23 261.63 165.03 259.66 165.03 257.1C163.76 259.17 162.02 260.77 159.82 261.9C157.62 263.03 155.12 263.6 152.34 263.6C149.37 263.6 146.96 262.79 145.14 261.18C143.33 259.55 142.43 257.44 142.43 254.84C142.43 251.88 143.76 249.52 146.42 247.75C149.1 245.96 152.65 245.05 157.08 245.01L165.03 245.01L165.03 240.3C165.03 237.6 164.18 235.51 162.47 234.02C160.78 232.53 158.36 231.79 155.2 231.79C152.26 231.79 149.81 232.54 147.85 234.05C145.88 235.56 144.9 237.42 144.9 239.65L143.29 239.59C143.29 236.97 144.44 234.74 146.74 232.92C149.05 231.09 151.87 230.18 155.2 230.18C158.68 230.18 161.44 231.05 163.48 232.8C165.53 234.53 166.58 236.97 166.64 240.13L166.64 255.52C166.64 259.06 166.92 261.46 167.48 262.73L167.48 263ZM152.34 262.02C155.36 262.02 157.95 261.34 160.12 259.99C162.3 258.64 163.94 256.75 165.03 254.3L165.03 246.65L157.59 246.65C152.98 246.65 149.46 247.56 147.01 249.39C145.03 250.88 144.03 252.73 144.03 254.96C144.03 256.92 144.82 258.59 146.39 259.96C147.96 261.33 149.94 262.02 152.34 262.02ZM191.39 230.5L191.21 231.93L189.13 231.76C186.39 231.76 184.1 232.65 182.25 234.44C180.4 236.2 179.19 238.69 178.61 241.88L178.61 263L177.01 263L177.01 230.77L178.61 230.77L178.61 237.47C179.49 235.23 180.8 233.45 182.55 232.14C184.29 230.83 186.49 230.18 189.13 230.18C190.06 230.18 190.82 230.29 191.39 230.5ZM218.59 263L203.75 245.58L203.69 245.64L199.02 249.66L199.02 263L197.41 263L197.41 217.25L199.02 217.25L199.02 247.9L202.8 244.32L217.45 230.77L219.75 230.77L204.94 244.5L220.67 263L218.59 263ZM227.88 217.25L227.88 238.28C228.93 235.78 230.48 233.8 232.53 232.35C234.57 230.9 236.83 230.18 239.32 230.18C242.77 230.18 245.33 231.16 247 233.13C248.69 235.07 249.54 238.02 249.56 241.97L249.56 263L247.95 263L247.95 241.91C247.93 238.46 247.23 235.91 245.84 234.26C244.45 232.59 242.25 231.76 239.23 231.76C236.45 231.76 234.03 232.75 231.99 234.73C229.96 236.7 228.59 239.24 227.88 242.36L227.88 263L226.27 263L226.27 217.25L227.88 217.25ZM282.33 263L280.48 263C280.08 261.63 279.88 259.66 279.88 257.1C278.61 259.17 276.88 260.77 274.67 261.9C272.47 263.03 269.98 263.6 267.2 263.6C264.22 263.6 261.81 262.79 259.99 261.18C258.18 259.55 257.28 257.44 257.28 254.84C257.28 251.88 258.61 249.52 261.27 247.75C263.95 245.96 267.5 245.05 271.93 245.01L279.88 245.01L279.88 240.3C279.88 237.6 279.03 235.51 277.32 234.02C275.63 232.53 273.21 231.79 270.06 231.79C267.12 231.79 264.66 232.54 262.7 234.05C260.73 235.56 259.75 237.42 259.75 239.65L258.14 239.59C258.14 236.97 259.29 234.74 261.6 232.92C263.9 231.09 266.72 230.18 270.06 230.18C273.53 230.18 276.29 231.05 278.34 232.8C280.38 234.53 281.43 236.97 281.49 240.13L281.49 255.52C281.49 259.06 281.77 261.46 282.33 262.73L282.33 263ZM267.2 262.02C270.21 262.02 272.81 261.34 274.97 259.99C277.15 258.64 278.79 256.75 279.88 254.3L279.88 246.65L272.44 246.65C267.83 246.65 264.31 247.56 261.86 249.39C259.88 250.88 258.89 252.73 258.89 254.96C258.89 256.92 259.67 258.59 261.24 259.96C262.81 261.33 264.79 262.02 267.2 262.02ZM293.85 217.25L293.85 263L292.25 263L292.25 217.25L293.85 217.25ZM324.29 255.11C324.29 251.2 320.96 248.53 314.29 247.12C310.28 246.27 307.49 245.18 305.92 243.85C304.35 242.5 303.56 240.65 303.56 238.31C303.56 235.95 304.56 234 306.54 232.47C308.55 230.94 311.15 230.18 314.35 230.18C317.82 230.18 320.61 231.01 322.72 232.68C324.82 234.33 325.87 236.56 325.87 239.38L324.23 239.38C324.23 237.22 323.32 235.41 321.49 233.96C319.67 232.51 317.28 231.79 314.35 231.79C311.53 231.79 309.29 232.4 307.64 233.63C306 234.86 305.17 236.4 305.17 238.25C305.17 239.7 305.48 240.84 306.1 241.67C306.71 242.49 307.71 243.23 309.1 243.91C310.49 244.56 312.52 245.2 315.18 245.81C317.84 246.43 319.95 247.15 321.49 247.99C323.04 248.82 324.16 249.82 324.86 250.97C325.55 252.1 325.9 253.49 325.9 255.14C325.9 257.68 324.86 259.72 322.77 261.27C320.69 262.82 317.96 263.6 314.58 263.6C310.97 263.6 308.05 262.78 305.83 261.15C303.62 259.51 302.52 257.39 302.52 254.81L304.13 254.81C304.29 257.07 305.28 258.84 307.11 260.11C308.95 261.36 311.45 261.99 314.58 261.99C317.46 261.99 319.8 261.32 321.58 259.99C323.39 258.64 324.29 257.01 324.29 255.11ZM336.74 222.08L338.38 222.08L338.38 230.77L345.71 230.77L345.71 232.41L338.38 232.41L338.38 255.29C338.38 257.57 338.75 259.26 339.48 260.35C340.24 261.44 341.49 261.99 343.24 261.99C344.11 261.99 345.17 261.9 346.42 261.72L346.69 263.24C346.04 263.48 344.92 263.6 343.33 263.6C340.98 263.6 339.31 262.95 338.29 261.66C337.28 260.35 336.76 258.29 336.74 255.49L336.74 232.41L330.79 232.41L330.79 230.77L336.74 230.77L336.74 222.08ZM365.67 263.6C363.06 263.6 360.67 262.9 358.49 261.51C356.32 260.1 354.63 258.17 353.39 255.73C352.16 253.29 351.55 250.58 351.55 247.6L351.55 246.26C351.55 243.28 352.14 240.55 353.33 238.07C354.53 235.59 356.16 233.65 358.25 232.26C360.33 230.87 362.61 230.18 365.07 230.18C368.66 230.18 371.6 231.46 373.89 234.02C376.17 236.58 377.31 239.95 377.31 244.12L377.31 245.81L353.16 245.81L353.16 247.57C353.16 250.19 353.7 252.62 354.79 254.87C355.91 257.09 357.42 258.84 359.35 260.11C361.3 261.38 363.4 262.02 365.67 262.02C367.83 262.02 369.67 261.66 371.18 260.94C372.7 260.21 374.06 259.09 375.23 257.58L376.36 258.38C373.96 261.86 370.39 263.6 365.67 263.6ZM365.07 231.79C361.93 231.79 359.27 232.96 357.09 235.3C354.9 237.62 353.62 240.59 353.25 244.21L375.7 244.21L375.7 243.82C375.7 241.63 375.24 239.61 374.3 237.74C373.39 235.86 372.12 234.4 370.49 233.36C368.88 232.31 367.08 231.79 365.07 231.79ZM407.48 263L405.64 263C405.24 261.63 405.04 259.66 405.04 257.1C403.77 259.17 402.03 260.77 399.83 261.9C397.63 263.03 395.13 263.6 392.35 263.6C389.37 263.6 386.97 262.79 385.15 261.18C383.34 259.55 382.43 257.44 382.43 254.84C382.43 251.88 383.76 249.52 386.43 247.75C389.11 245.96 392.66 245.05 397.09 245.01L405.04 245.01L405.04 240.3C405.04 237.6 404.19 235.51 402.48 234.02C400.79 232.53 398.37 231.79 395.21 231.79C392.27 231.79 389.82 232.54 387.86 234.05C385.89 235.56 384.91 237.42 384.91 239.65L383.3 239.59C383.3 236.97 384.45 234.74 386.75 232.92C389.06 231.09 391.88 230.18 395.21 230.18C398.69 230.18 401.45 231.05 403.49 232.8C405.54 234.53 406.59 236.97 406.65 240.13L406.65 255.52C406.65 259.06 406.93 261.46 407.48 262.73L407.48 263ZM392.35 262.02C395.37 262.02 397.96 261.34 400.13 259.99C402.31 258.64 403.95 256.75 405.04 254.3L405.04 246.65L397.6 246.65C392.99 246.65 389.46 247.56 387.02 249.39C385.04 250.88 384.04 252.73 384.04 254.96C384.04 256.92 384.83 258.59 386.4 259.96C387.96 261.33 389.95 262.02 392.35 262.02ZM415.53 246.98L415.53 246.56C415.53 241.42 416.61 237.4 418.77 234.53C420.94 231.63 423.91 230.18 427.68 230.18C430.1 230.18 432.24 230.72 434.08 231.81C435.95 232.91 437.46 234.54 438.61 236.7L438.61 217.25L440.22 217.25L440.22 263L438.61 263L438.61 257.85C437.52 259.67 436.02 261.09 434.11 262.11C432.21 263.1 430.04 263.6 427.62 263.6C423.89 263.6 420.94 262.12 418.77 259.16C416.61 256.2 415.53 252.14 415.53 246.98ZM417.19 247.18C417.19 251.75 418.1 255.37 419.9 258.03C421.71 260.67 424.27 261.99 427.59 261.99C430.25 261.99 432.52 261.4 434.41 260.23C436.3 259.04 437.7 257.3 438.61 255.02L438.61 239.92C436.76 234.5 433.11 231.79 427.65 231.79C424.35 231.79 421.78 233.09 419.93 235.69C418.11 238.29 417.19 242.12 417.19 247.18ZM449.66 261.54C449.66 261.08 449.82 260.7 450.14 260.38C450.45 260.04 450.84 259.87 451.3 259.87C451.75 259.87 452.14 260.04 452.46 260.38C452.8 260.7 452.97 261.08 452.97 261.54C452.97 262 452.8 262.38 452.46 262.7C452.14 263.02 451.75 263.18 451.3 263.18C450.84 263.18 450.45 263.02 450.14 262.7C449.82 262.38 449.66 262 449.66 261.54ZM461.99 246.98L461.99 246.56C461.99 241.42 463.07 237.4 465.24 234.53C467.4 231.63 470.37 230.18 474.14 230.18C476.57 230.18 478.7 230.72 480.55 231.81C482.41 232.91 483.92 234.54 485.07 236.7L485.07 217.25L486.68 217.25L486.68 263L485.07 263L485.07 257.85C483.98 259.67 482.48 261.09 480.58 262.11C478.67 263.1 476.51 263.6 474.08 263.6C470.35 263.6 467.4 262.12 465.24 259.16C463.07 256.2 461.99 252.14 461.99 246.98ZM463.66 247.18C463.66 251.75 464.56 255.37 466.37 258.03C468.18 260.67 470.74 261.99 474.05 261.99C476.71 261.99 478.99 261.4 480.87 260.23C482.76 259.04 484.16 257.3 485.07 255.02L485.07 239.92C483.23 234.5 479.57 231.79 474.11 231.79C470.82 231.79 468.25 233.09 466.4 235.69C464.57 238.29 463.66 242.12 463.66 247.18ZM508.46 263.6C505.85 263.6 503.46 262.9 501.28 261.51C499.11 260.1 497.42 258.17 496.18 255.73C494.95 253.29 494.34 250.58 494.34 247.6L494.34 246.26C494.34 243.28 494.93 240.55 496.12 238.07C497.32 235.59 498.95 233.65 501.04 232.26C503.12 230.87 505.4 230.18 507.86 230.18C511.45 230.18 514.39 231.46 516.68 234.02C518.96 236.58 520.1 239.95 520.1 244.12L520.1 245.81L495.95 245.81L495.95 247.57C495.95 250.19 496.49 252.62 497.58 254.87C498.7 257.09 500.22 258.84 502.14 260.11C504.09 261.38 506.19 262.02 508.46 262.02C510.62 262.02 512.46 261.66 513.97 260.94C515.49 260.21 516.85 259.09 518.02 257.58L519.15 258.38C516.75 261.86 513.18 263.6 508.46 263.6ZM507.86 231.79C504.72 231.79 502.06 232.96 499.88 235.3C497.69 237.62 496.41 240.59 496.04 244.21L518.49 244.21L518.49 243.82C518.49 241.63 518.03 239.61 517.09 237.74C516.18 235.86 514.91 234.4 513.28 233.36C511.67 232.31 509.87 231.79 507.86 231.79ZM525.11 230.77L536.69 260.44L548.28 230.77L550.01 230.77L537.47 263L535.89 263L523.38 230.77L525.11 230.77Z" />
</svg>
